<?xml version="1.0" encoding="UTF-8" standalone="no"?>
<!-- Uploaded to: SVG Repo, www.svgrepo.com, Generator: SVG Repo Mixer Tools -->

<svg
   fill="#000000"
   height="799.99628"
   width="705.90454"
   version="1.1"
   id="Capa_1"
   viewBox="0 0 376.93802 427.18101"
   xml:space="preserve"
   sodipodi:docname="logo.svg"
   xmlns:inkscape="http://www.inkscape.org/namespaces/inkscape"
   xmlns:sodipodi="http://sodipodi.sourceforge.net/DTD/sodipodi-0.dtd"
   xmlns="http://www.w3.org/2000/svg"
   xmlns:svg="http://www.w3.org/2000/svg"><defs
   id="defs23" /><sodipodi:namedview
   id="namedview21"
   pagecolor="#ffffff"
   bordercolor="#000000"
   borderopacity="0.25"
   inkscape:showpageshadow="2"
   inkscape:pageopacity="0.0"
   inkscape:pagecheckerboard="0"
   inkscape:deskcolor="#d1d1d1"
   showgrid="false" />
<path
   d="M 341.093,129.976 H 319.472 V 57.313 c 0,-24.708 -20.102,-44.809 -44.81,-44.809 -13.976,0 -26.475,6.435 -34.698,16.493 C 233.559,12.07 217.189,0 198.046,0 178.769,0 162.299,12.236 155.988,29.348 147.763,19.388 135.324,13.03 121.428,13.03 96.72,13.03 76.619,33.131 76.619,57.839 v 0.563 C 68.494,50.204 57.236,45.117 44.809,45.117 20.101,45.117 -2.8991698e-7,65.218 -2.8991698e-7,89.926 V 229.581 C -2.8991698e-7,285.027 18.966,339.295 53.454,382.668 v 38.013 c 0,3.59 2.91,6.5 6.5,6.5 3.59,0 6.5,-2.91 6.5,-6.5 v -40.3 c 0,-1.491 -0.513,-2.936 -1.451,-4.094 C 31.469,334.928 13,282.827 13,229.58 v -33.708 c 8.125,8.198 19.382,13.285 31.809,13.285 16.71,0 31.303,-9.2 39.006,-22.795 7.992,12.324 21.861,20.5 37.612,20.5 16.212,0 30.44,-8.654 38.308,-21.585 7.869,12.929 22.096,21.581 38.307,21.581 4.686,0 9.243,-0.723 13.62,-2.124 8.616,12.478 23.009,20.676 39.287,20.676 h 13.992 v 2.058 h -13 c -47.421,0 -86,38.58 -86,86 0,3.59 2.91,6.5 6.5,6.5 3.59,0 6.5,-2.91 6.5,-6.5 0,-40.252 32.748,-73 73,-73 h 19.5 c 3.59,0 6.5,-2.91 6.5,-6.5 v -8.558 h 39.326 c 3.59,0 6.5,-2.91 6.5,-6.5 0,-3.59 -2.91,-6.5 -6.5,-6.5 h -66.318 c -19.144,0 -34.719,-15.575 -34.719,-34.718 0,-19.143 15.575,-34.718 34.719,-34.718 h 90.143 c 12.598,0 22.846,10.249 22.846,22.846 v 90.861 c 0,36.452 -17.734,70.829 -47.439,91.958 l -0.291,0.207 c -21.61,15.372 -34.512,40.38 -34.512,66.899 0,3.59 2.91,6.5 6.5,6.5 3.59,0 6.5,-2.91 6.5,-6.5 0,-22.319 10.858,-43.368 29.047,-56.306 l 0.291,-0.207 c 33.127,-23.563 52.904,-61.899 52.904,-102.551 V 165.82 c 0.001,-19.764 -16.079,-35.844 -35.845,-35.844 z M 76.62,164.35 c 0,17.54 -14.27,31.809 -31.81,31.809 -17.539,0 -31.809,-14.27 -31.809,-31.809 V 89.927 c 0,-17.54 14.27,-31.809 31.809,-31.809 17.54,0 31.81,14.269 31.81,31.809 z m 44.808,29.514 c -17.539,0 -31.809,-14.269 -31.809,-31.809 V 57.84 c 0,-17.54 14.27,-31.809 31.809,-31.809 17.539,0 31.809,14.269 31.809,31.809 v 10e-4 h -0.004 v 104.21 c 0,0.027 0.002,0.053 0.002,0.079 -0.041,17.505 -14.293,31.734 -31.807,31.734 z m 81.804,-16.17 c 0,5.322 0.889,10.438 2.504,15.222 -2.494,0.62 -5.064,0.945 -7.693,0.945 -17.513,0 -31.765,-14.227 -31.809,-31.731 0,-0.025 0.002,-0.05 0.002,-0.075 V 44.809 c 0,-17.54 14.27,-31.809 31.809,-31.809 17.539,0 31.809,14.269 31.809,31.809 v 90.098 c -15.757,7.801 -26.622,24.046 -26.622,42.787 z m 39.622,-47.017 V 57.313 c 0,-17.54 14.27,-31.809 31.81,-31.809 17.539,0 31.809,14.269 31.809,31.809 v 72.663 h -55.521 c -2.762,0 -5.464,0.248 -8.098,0.701 z"
   id="path18"
   style="fill:#ffffff;fill-opacity:1" />
</svg>
